<svg xmlns="http://www.w3.org/2000/svg" viewBox="0 0 8 10" width="8px" height="10px">
  <g fill="#4d616c" fill-rule="nonzero">
    <path d="M7.27 1.71A3.92 3.92 0 0 0 4 0 3.98 3.98
      0 0 0 .27 5.38c.12.33.32.65.58.95l2.89 3.4a.34.34
      0 0 0 .52 0l2.9-3.4c.25-.3.45-.62.57-.95a3.98 3.98 0
      0 0-.46-3.67zm-.18 3.43a2.46 2.46 0 0 1-.46.74L4
      8.98l-2.63-3.1c-.2-.24-.36-.49-.46-.75a3.29 3.29 0 1 1 6.18 0z" />
    <path d="M4 2.04A1.93 1.93 0 1 0 4
      5.9a1.93 1.93 0 0 0 0-3.86zm0 3.17a1.24
      1.24 0 1 1 0-2.48A1.24 1.24 0 0 1 4 5.2z" />
  </g>
</svg>